<svg width="51" height="50" viewBox="0 0 51 50" fill="none" xmlns="http://www.w3.org/2000/svg">
<ellipse opacity="0.1" cx="25.8484" cy="25" rx="25.0671" ry="25" fill="#212353"/>
<path d="M25.8504 20.8978C23.5742 20.8978 21.7381 22.7293 21.7381 25C21.7381 27.2707 23.5742 29.1022 25.8504 29.1022C28.1267 29.1022 29.9627 27.2707 29.9627 25C29.9627 22.7293 28.1267 20.8978 25.8504 20.8978ZM25.8504 27.667C24.3794 27.667 23.1769 26.4709 23.1769 25C23.1769 23.5291 24.3759 22.333 25.8504 22.333C27.325 22.333 28.524 23.5291 28.524 25C28.524 26.4709 27.3214 27.667 25.8504 27.667V27.667ZM31.0901 20.73C31.0901 21.262 30.6606 21.6868 30.1309 21.6868C29.5977 21.6868 29.1718 21.2584 29.1718 20.73C29.1718 20.2016 29.6012 19.7732 30.1309 19.7732C30.6606 19.7732 31.0901 20.2016 31.0901 20.73ZM33.8138 21.7011C33.7529 20.4194 33.4594 19.2841 32.5181 18.3487C31.5804 17.4133 30.4423 17.1205 29.1574 17.0562C27.8332 16.9813 23.8641 16.9813 22.5398 17.0562C21.2585 17.1169 20.1204 17.4097 19.1791 18.3451C18.2378 19.2805 17.9479 20.4158 17.8835 21.6975C17.8084 23.0185 17.8084 26.9779 17.8835 28.2989C17.9444 29.5806 18.2378 30.7159 19.1791 31.6513C20.1204 32.5867 21.255 32.8795 22.5398 32.9438C23.8641 33.0187 27.8332 33.0187 29.1574 32.9438C30.4423 32.8831 31.5804 32.5903 32.5181 31.6513C33.4558 30.7159 33.7493 29.5806 33.8138 28.2989C33.8889 26.9779 33.8889 23.0221 33.8138 21.7011V21.7011ZM32.103 29.7163C31.8238 30.416 31.2834 30.9551 30.5783 31.2372C29.5225 31.6549 27.0172 31.5585 25.8504 31.5585C24.6837 31.5585 22.1748 31.6513 21.1225 31.2372C20.421 30.9587 19.8806 30.4196 19.5979 29.7163C19.1791 28.6631 19.2758 26.1639 19.2758 25C19.2758 23.8361 19.1827 21.3334 19.5979 20.2837C19.877 19.584 20.4175 19.0449 21.1225 18.7628C22.1783 18.3451 24.6837 18.4415 25.8504 18.4415C27.0172 18.4415 29.5261 18.3487 30.5783 18.7628C31.2798 19.0413 31.8202 19.5804 32.103 20.2837C32.5217 21.3369 32.4251 23.8361 32.4251 25C32.4251 26.1639 32.5217 28.6666 32.103 29.7163Z" fill="white"/>
</svg>
