<svg width="51" height="50" viewBox="0 0 51 50" fill="none" xmlns="http://www.w3.org/2000/svg">
<ellipse opacity="0.1" cx="25.6765" cy="25" rx="25.0671" ry="25" fill="#212353"/>
<path fill-rule="evenodd" clip-rule="evenodd" d="M25.5858 21.6592L25.5461 21.0076C25.427 19.3187 26.4725 17.7761 28.1269 17.1777C28.7357 16.9649 29.768 16.9383 30.443 17.1245C30.7076 17.2043 31.2106 17.4702 31.5679 17.7096L32.2164 18.1485L32.9311 17.9224C33.3282 17.8027 33.8575 17.6032 34.0957 17.4702C34.3207 17.3506 34.5192 17.284 34.5192 17.324C34.5192 17.55 34.0296 18.3213 33.6193 18.7468C33.0634 19.3453 33.2223 19.3985 34.3472 18.9995C35.0222 18.7734 35.0354 18.7734 34.9031 19.0261C34.8236 19.1591 34.4133 19.6245 33.9766 20.0501C33.2354 20.7815 33.1958 20.8613 33.1958 21.473C33.1958 22.4172 32.7458 24.3853 32.2958 25.4624C31.462 27.4838 29.6753 29.5715 27.8886 30.6221C25.3741 32.0982 22.0256 32.4705 19.2067 31.6062C18.267 31.3136 16.6523 30.5689 16.6523 30.436C16.6523 30.396 17.142 30.3428 17.7376 30.3296C18.9817 30.303 20.2257 29.9572 21.2845 29.3455L21.9992 28.92L21.1786 28.6407C20.0139 28.2417 18.9684 27.3242 18.7038 26.4598C18.6243 26.1805 18.6508 26.1672 19.3919 26.1672L20.1596 26.1539L19.511 25.8481C18.7434 25.4624 18.042 24.8108 17.6979 24.1459C17.4464 23.6672 17.1288 22.457 17.2215 22.364C17.2479 22.3241 17.5259 22.4038 17.8435 22.5102C18.7567 22.8427 18.8758 22.7629 18.3464 22.2044C17.3538 21.1937 17.0494 19.691 17.5259 18.2681L17.7509 17.6298L18.6243 18.4942C20.411 20.2362 22.5154 21.2735 24.9241 21.5794L25.5858 21.6592Z" fill="white"/>
</svg>
